<svg xmlns="http://www.w3.org/2000/svg" viewBox="0 0 391.91 405.23"><defs><style>.cls-1{fill:#010101;}</style></defs><g id="Camada_2" data-name="Camada 2"><g id="Camada_2-2" data-name="Camada 2"><path class="cls-1" d="M391.91,203.36q0,89.91,0,179.82c0,11.28-4.75,18.37-13.88,21.27a23.8,23.8,0,0,1-7.26.77q-174.79,0-349.58,0C7.67,405.22,0,397.46,0,383.67q0-181,0-361.93C0,8.43,8.47,0,21.61,0H370.26c13.39,0,21.63,8.4,21.63,22.16Q392,112.77,391.91,203.36Zm-195.84-81q-76,0-152-.09c-3.89,0-5.11.71-5.1,4.94q.23,116.56,0,233.13c0,4.19,1.13,5,5.08,5q152-.17,304.07,0c3.73,0,4.86-.81,4.85-4.73q-.18-116.79,0-233.6c0-3.91-1.14-4.71-4.84-4.7Q272.09,122.45,196.07,122.35Zm-.6-41.16q76.49,0,153,.08c3.58,0,4.62-.85,4.52-4.5-.26-10.11-.31-20.24,0-30.34.14-4.3-.8-5.63-5.4-5.62q-100.6.27-201.19.12c-34.3,0-68.6.07-102.9-.09-3.7,0-4.6,1-4.51,4.61.23,10.26.28,20.54,0,30.8-.12,4,.79,5.06,4.94,5C94.41,81.13,144.94,81.19,195.47,81.19Z"/><path class="cls-1" d="M196,183.07c32.61,0,65.21,0,97.81,0,9,0,16.22,5.33,18.83,13.39s-.09,17.32-6.49,22.41a20.32,20.32,0,0,1-13.26,4.2c-14.7-.07-29.39,0-44.08,0-49.75,0-99.5-.19-149.24.12-15.76.09-24-13.81-20.3-26.25,2.55-8.67,9.87-13.85,19.84-13.86Q147.51,183,196,183.07Z"/><path class="cls-1" d="M146.69,304.5h-46.4c-11.66,0-16.31-4.11-20.52-13.51-3.44-7.65-.94-16.87,6-23.31a16.94,16.94,0,0,1,11.81-4.32c32.92,0,65.84-.15,98.77.05,14.12.08,23.48,16.59,17.07,29.35-3.94,7.85-10.08,11.83-18.95,11.77C178.55,304.42,162.62,304.5,146.69,304.5Z"/></g></g></svg>