<svg xmlns="http://www.w3.org/2000/svg" viewBox="0 0 509 405.29"><g id="Camada_2" data-name="Camada 2"><g id="Camada_2-2" data-name="Camada 2"><path d="M0,202.67c2.08-2.5,3.83-5.4,6.29-7.45Q116.72,103,227.31,11c17.68-14.72,36.76-14.67,54.46.08q34.55,28.8,69,57.69c1.25,1,2.55,2,4.53,3.59.12-2.29.27-3.84.28-5.39,0-17.56,0-35.12,0-52.68,0-10,3.3-13.28,13.46-13.29q27.07,0,54.17,0c9.67,0,13.14,3.53,13.14,13.24,0,40.26.07,80.51-.08,120.77a9.56,9.56,0,0,0,4,8.34c20.73,17,41.32,34.24,62,51.38,8.4,7,8.88,11.75,1.95,20C499.08,220.85,494,227,488.86,233c-5.71,6.72-11.16,7.2-17.95,1.53q-105-87.49-209.92-175c-2-1.7-4.07-3.37-6.5-5.37-7.93,6.59-15.79,13.11-23.64,19.66L38.49,234.24c-7.31,6.09-12.62,5.66-18.68-1.59-6.65-8-13.21-16-19.81-24Z"/><path d="M254.57,82l84,69.23q47,38.73,94,77.38a9.65,9.65,0,0,1,3.9,8.41q-.16,72.56-.08,145.11c0,14.84-8.22,23.13-23,23.15q-56.66.06-113.3,0c-1.46,0-2.92-.13-4.91-.23V284.44h-81V405c-2.31.11-3.92.24-5.54.24q-56.4,0-112.8,0c-15.1,0-23.2-8.25-23.2-23.49q0-72.3-.08-144.61a10.13,10.13,0,0,1,4.17-8.78q86.55-71.13,172.94-142.48C251.16,84.66,252.72,83.46,254.57,82Z"/></g></g></svg>