<svg xmlns="http://www.w3.org/2000/svg" viewBox="0 0 409.14 405.56"><defs><style>.cls-1{fill:#010101;}</style></defs><g id="Camada_2" data-name="Camada 2"><g id="Camada_2-2" data-name="Camada 2"><path class="cls-1" d="M0,362V43.56c1.42-.43.92-1.76,1.15-2.65Q9.39,9.28,41.27,1.14C42.17.91,43.52,1.4,44,0H363.58c1.1,1.58,2.88.8,4.31,1.13,24.54,5.76,41.17,26,41.2,51.09q.14,150.65,0,301.28a48.25,48.25,0,0,1-1.31,11.36c-5.94,24.73-26.39,40.65-52.41,40.67q-93.86.06-187.72,0c-38.21,0-76.42.07-114.63,0C27.73,405.45,7.52,389.6,1.38,365.4,1.09,364.26,1.52,362.68,0,362ZM385.08,221.73c0-57.11.07-112.94,0-168.77,0-17.42-12.39-29.11-30.35-29.11q-150.19,0-300.39,0c-18.25,0-30.23,11.92-30.24,30q0,110.48,0,220.94c0,1.06-.65,2.35.7,3.29.73-.58,1.45-1.15,2.15-1.74l59-49.75c14.25-12,30.15-12.2,44.51-.46,12.11,9.9,24.26,19.77,36.2,29.89,2.73,2.32,4.12,2.14,6.59-.32q52.51-52.38,105.21-104.58c6.11-6.06,13.07-10.31,21.89-10.91,11.84-.8,21.17,3.92,28.52,12.88q22.54,27.48,45.06,55Zm-181,160q75.28,0,150.57,0c18.3,0,30.34-11.86,30.37-29.9.06-29.69,0-59.38.06-89.08a8.14,8.14,0,0,0-2.12-5.65c-6.21-7.41-12.28-14.93-18.4-22.4Q337.3,201.33,310,168c-2.37-2.91-5.09-4.65-8.94-3.84-2.47.52-4.07,2.39-5.76,4.07Q238,225.08,180.74,282c-6.33,6.29-12.11,6.59-19,1Q138.7,264,115.68,245c-5.84-4.81-8.58-4.86-14.29-.05q-37.56,31.65-75.15,63.3a5.77,5.77,0,0,0-2.23,5c.08,12.8,0,25.6,0,38.4a32.69,32.69,0,0,0,1.2,9.38c3.89,13.07,14.45,20.59,29.1,20.6Q129.25,381.74,204.12,381.7Z"/><path class="cls-1" d="M70.71,107.34A58,58,0,0,1,129,49.9c32,.16,58.16,26.38,57.87,57.93A57.93,57.93,0,0,1,128.35,165C96.25,164.57,70.49,138.81,70.71,107.34Zm24.19.21a34,34,0,0,0,67.91,0c.17-18.19-15.51-33.79-34-33.83S94.84,89.12,94.9,107.55Z"/></g></g></svg>