<svg xmlns="http://www.w3.org/2000/svg" viewBox="0 0 372.16 373.05"><defs><style>.cls-1{fill:#020202;}</style></defs><g id="Camada_2" data-name="Camada 2"><g id="Camada_2-2" data-name="Camada 2"><path class="cls-1" d="M0,156.66C.09,82,51.74,18.42,123.64,3.28,210.33-15,296.1,45.11,308.39,132.76c6.09,43.48-4.34,82.68-30.76,117.6-2.14,2.83-2,4.13.45,6.56Q322.26,300.87,366.2,345c4.84,4.83,7.32,10.21,5.2,17a15.35,15.35,0,0,1-24.65,7.33,48,48,0,0,1-3.48-3.37q-43.33-43.41-86.6-86.9c-2.65-2.68-4.07-3-7.27-.56C159,348.48,25.67,298.7,3.12,186.68A145.52,145.52,0,0,1,0,156.66ZM155.16,31.2C86.77,31.16,31,87,31,155.54c0,68.32,55.54,124.09,123.72,124.27C223.12,280,279,224.22,279.13,155.7S223.55,31.24,155.16,31.2Z"/></g></g></svg>